# xmcd CD database file
#
# Track frame offsets:
#	150
#	19449
#	36999
#	63998
#	87107
#	106970
#	124379
#	144772
#	165863
#	183405
#	207451
#	225047
#
# Disc length: 3362 seconds
#
# Revision: 0
# Processed by: cddbd v1.5.1PL0 Copyright (c) Steve Scherf et al.
# Submitted via: CDex 1.51
#
DISCID=960d200c
DTITLE=U3 - あれから10年記念版
DYEAR=2003
DGENRE=Pop
TTITLE0=STAR
TTITLE1=流されてゆくなら
TTITLE2=子供たちの歌が聞こえる
TTITLE3=愛しているよ、あの日の君を
TTITLE4=生まれたときから I LOVE YOU
TTITLE5=THANK YOU
TTITLE6=生きることを教えてくれた
TTITLE7=婚約解消
TTITLE8=ニューヨーク・セレナーデ
TTITLE9=やり直せる人生
TTITLE10=THANK YOU(マキシバージョン)
TTITLE11=子供たちの歌が聞こえる(マキシバージョン)
EXTD=YEAR: 2003
EXTT0=
EXTT1=
EXTT2=
EXTT3=
EXTT4=
EXTT5=
EXTT6=
EXTT7=
EXTT8=
EXTT9=
EXTT10=
EXTT11=
PLAYORDER=
